<?xml version="1.0" encoding="UTF-8" standalone="no"?>
<!DOCTYPE svg PUBLIC "-//W3C//DTD SVG 1.1//EN"
 "http://www.w3.org/Graphics/SVG/1.1/DTD/svg11.dtd">
<!-- Generated by graphviz version 14.1.4 (20260321.0153)
 -->
<!-- Title: Intake Pages: 1 -->
<svg width="376pt" height="190pt"
 viewBox="0.00 0.00 376.00 190.00" xmlns="http://www.w3.org/2000/svg" xmlns:xlink="http://www.w3.org/1999/xlink">
<g id="graph0" class="graph" transform="scale(1 1) rotate(0) translate(4 186)">
<title>Intake</title>
<polygon fill="white" stroke="none" points="-4,4 -4,-186 371.65,-186 371.65,4 -4,4"/>
<text xml:space="preserve" text-anchor="middle" x="183.82" y="-6.5" font-family="Arial" font-size="10.00">Intake</text>
<g id="clust2" class="cluster">
<title>cluster_intake_anchor_atomic</title>
</g>
<!-- intake_anchor -->
<g id="node1" class="node">
<title>intake_anchor</title>
<ellipse fill="black" stroke="black" cx="7.2" cy="-106" rx="7.2" ry="7.2"/>
</g>
<!-- OFF -->
<g id="node2" class="node">
<title>OFF</title>
<path fill="turquoise" stroke="black" stroke-width="2" d="M93.4,-124C93.4,-124 63.4,-124 63.4,-124 57.4,-124 51.4,-118 51.4,-112 51.4,-112 51.4,-100 51.4,-100 51.4,-94 57.4,-88 63.4,-88 63.4,-88 93.4,-88 93.4,-88 99.4,-88 105.4,-94 105.4,-100 105.4,-100 105.4,-112 105.4,-112 105.4,-118 99.4,-124 93.4,-124"/>
<text xml:space="preserve" text-anchor="middle" x="78.4" y="-102.5" font-family="Arial" font-size="10.00">Off</text>
</g>
<!-- intake_anchor&#45;&gt;OFF -->
<g id="edge1" class="edge">
<title>intake_anchor&#45;&gt;OFF</title>
<path fill="none" stroke="blue" d="M14.84,-106C20.7,-106 29.78,-106 39.21,-106"/>
<polygon fill="blue" stroke="blue" points="39.19,-109.5 49.19,-106 39.19,-102.5 39.19,-109.5"/>
</g>
<!-- INTAKING -->
<g id="node3" class="node">
<title>INTAKING</title>
<path fill="white" stroke="black" d="M208.15,-119C208.15,-119 178.15,-119 178.15,-119 172.15,-119 166.15,-113 166.15,-107 166.15,-107 166.15,-95 166.15,-95 166.15,-89 172.15,-83 178.15,-83 178.15,-83 208.15,-83 208.15,-83 214.15,-83 220.15,-89 220.15,-95 220.15,-95 220.15,-107 220.15,-107 220.15,-113 214.15,-119 208.15,-119"/>
<text xml:space="preserve" text-anchor="middle" x="193.15" y="-97.5" font-family="Arial" font-size="10.00">Intaking</text>
</g>
<!-- OFF&#45;&gt;INTAKING -->
<g id="edge2" class="edge">
<title>OFF&#45;&gt;INTAKING</title>
<path fill="none" stroke="blue" d="M106.01,-95.01C111.66,-93.14 117.65,-91.48 123.4,-90.5 133.52,-88.77 144.5,-89.35 154.65,-90.89"/>
<polygon fill="blue" stroke="blue" points="153.71,-94.27 164.18,-92.69 155.01,-87.39 153.71,-94.27"/>
<text xml:space="preserve" text-anchor="middle" x="135.77" y="-92.45" font-family="Arial" font-size="9.00">intake</text>
</g>
<!-- OUTTAKING -->
<g id="node4" class="node">
<title>OUTTAKING</title>
<path fill="white" stroke="black" d="M339.65,-124C339.65,-124 305.65,-124 305.65,-124 299.65,-124 293.65,-118 293.65,-112 293.65,-112 293.65,-100 293.65,-100 293.65,-94 299.65,-88 305.65,-88 305.65,-88 339.65,-88 339.65,-88 345.65,-88 351.65,-94 351.65,-100 351.65,-100 351.65,-112 351.65,-112 351.65,-118 345.65,-124 339.65,-124"/>
<text xml:space="preserve" text-anchor="middle" x="322.65" y="-102.5" font-family="Arial" font-size="10.00">Outtaking</text>
</g>
<!-- OFF&#45;&gt;OUTTAKING -->
<g id="edge3" class="edge">
<title>OFF&#45;&gt;OUTTAKING</title>
<path fill="none" stroke="blue" d="M106.32,-88.83C122.87,-79.31 144.91,-68.42 166.15,-63.5 206.32,-54.19 251.76,-69.67 283.1,-84.5"/>
<polygon fill="blue" stroke="blue" points="281.29,-87.51 291.8,-88.79 284.38,-81.23 281.29,-87.51"/>
<text xml:space="preserve" text-anchor="middle" x="193.15" y="-65.45" font-family="Arial" font-size="9.00">outtaking</text>
</g>
<!-- INTAKING&#45;&gt;OFF -->
<g id="edge5" class="edge">
<title>INTAKING&#45;&gt;OFF</title>
<path fill="none" stroke="blue" d="M166.01,-102.16C151.54,-102.8 133.3,-103.61 117.29,-104.32"/>
<polygon fill="blue" stroke="blue" points="117.47,-100.81 107.63,-104.75 117.78,-107.8 117.47,-100.81"/>
<text xml:space="preserve" text-anchor="middle" x="135.77" y="-105.9" font-family="Arial" font-size="9.00">off</text>
</g>
<!-- INTAKING&#45;&gt;OUTTAKING -->
<g id="edge4" class="edge">
<title>INTAKING&#45;&gt;OUTTAKING</title>
<path fill="none" stroke="blue" d="M220.49,-93.65C226.27,-92.34 232.38,-91.18 238.15,-90.5 254.7,-88.55 259.2,-87.8 275.65,-90.5 277.83,-90.86 280.05,-91.31 282.28,-91.82"/>
<polygon fill="blue" stroke="blue" points="281.28,-95.18 291.85,-94.45 283.13,-88.43 281.28,-95.18"/>
<text xml:space="preserve" text-anchor="middle" x="256.9" y="-92.45" font-family="Arial" font-size="9.00">outtaking</text>
</g>
<!-- OUTTAKING&#45;&gt;OFF -->
<g id="edge7" class="edge">
<title>OUTTAKING&#45;&gt;OFF</title>
<path fill="none" stroke="blue" d="M293.56,-114.49C287.67,-116.11 281.48,-117.71 275.65,-119 227.98,-129.57 214.66,-133.6 166.15,-128 149.79,-126.11 132.11,-122.02 117,-117.87"/>
<polygon fill="blue" stroke="blue" points="118.05,-114.52 107.47,-115.13 116.12,-121.25 118.05,-114.52"/>
<text xml:space="preserve" text-anchor="middle" x="193.15" y="-132.47" font-family="Arial" font-size="9.00">off</text>
</g>
<!-- OUTTAKING&#45;&gt;INTAKING -->
<g id="edge6" class="edge">
<title>OUTTAKING&#45;&gt;INTAKING</title>
<path fill="none" stroke="blue" d="M293.5,-104.9C275.4,-104.19 251.68,-103.26 231.95,-102.48"/>
<polygon fill="blue" stroke="blue" points="232.21,-98.99 222.08,-102.1 231.94,-105.98 232.21,-98.99"/>
<text xml:space="preserve" text-anchor="middle" x="256.9" y="-106.04" font-family="Arial" font-size="9.00">intake</text>
</g>
</g>
</svg>
