<?xml version="1.0" encoding="UTF-8" standalone="no"?>
<!DOCTYPE svg PUBLIC "-//W3C//DTD SVG 1.1//EN"
 "http://www.w3.org/Graphics/SVG/1.1/DTD/svg11.dtd">
<!-- Generated by graphviz version 14.1.4 (20260321.0153)
 -->
<!-- Title: Scorer Pages: 1 -->
<svg width="699pt" height="244pt"
 viewBox="0.00 0.00 699.00 244.00" xmlns="http://www.w3.org/2000/svg" xmlns:xlink="http://www.w3.org/1999/xlink">
<g id="graph0" class="graph" transform="scale(1 1) rotate(0) translate(4 240)">
<title>Scorer</title>
<polygon fill="white" stroke="none" points="-4,4 -4,-240 695.15,-240 695.15,4 -4,4"/>
<text xml:space="preserve" text-anchor="middle" x="345.58" y="-6.5" font-family="Arial" font-size="10.00">Scorer</text>
<g id="clust2" class="cluster">
<title>cluster_scorer_anchor_atomic</title>
</g>
<!-- scorer_anchor -->
<g id="node1" class="node">
<title>scorer_anchor</title>
<ellipse fill="black" stroke="black" cx="7.2" cy="-120" rx="7.2" ry="7.2"/>
</g>
<!-- OFF -->
<g id="node2" class="node">
<title>OFF</title>
<path fill="turquoise" stroke="black" stroke-width="2" d="M93.4,-138C93.4,-138 63.4,-138 63.4,-138 57.4,-138 51.4,-132 51.4,-126 51.4,-126 51.4,-114 51.4,-114 51.4,-108 57.4,-102 63.4,-102 63.4,-102 93.4,-102 93.4,-102 99.4,-102 105.4,-108 105.4,-114 105.4,-114 105.4,-126 105.4,-126 105.4,-132 99.4,-138 93.4,-138"/>
<text xml:space="preserve" text-anchor="middle" x="78.4" y="-116.5" font-family="Arial" font-size="10.00">Off</text>
</g>
<!-- scorer_anchor&#45;&gt;OFF -->
<g id="edge1" class="edge">
<title>scorer_anchor&#45;&gt;OFF</title>
<path fill="none" stroke="blue" d="M14.84,-120C20.7,-120 29.78,-120 39.21,-120"/>
<polygon fill="blue" stroke="blue" points="39.19,-123.5 49.19,-120 39.19,-116.5 39.19,-123.5"/>
</g>
<!-- RESTING -->
<g id="node3" class="node">
<title>RESTING</title>
<path fill="white" stroke="black" d="M261.4,-138C261.4,-138 231.4,-138 231.4,-138 225.4,-138 219.4,-132 219.4,-126 219.4,-126 219.4,-114 219.4,-114 219.4,-108 225.4,-102 231.4,-102 231.4,-102 261.4,-102 261.4,-102 267.4,-102 273.4,-108 273.4,-114 273.4,-114 273.4,-126 273.4,-126 273.4,-132 267.4,-138 261.4,-138"/>
<text xml:space="preserve" text-anchor="middle" x="246.4" y="-116.5" font-family="Arial" font-size="10.00">Resting</text>
</g>
<!-- OFF&#45;&gt;RESTING -->
<g id="edge2" class="edge">
<title>OFF&#45;&gt;RESTING</title>
<path fill="none" stroke="blue" d="M106.01,-109.01C111.66,-107.14 117.65,-105.48 123.4,-104.5 157.57,-98.66 167.23,-98.66 201.4,-104.5 203.71,-104.89 206.06,-105.4 208.4,-105.98"/>
<polygon fill="blue" stroke="blue" points="207.23,-109.28 217.81,-108.74 209.2,-102.57 207.23,-109.28"/>
<text xml:space="preserve" text-anchor="middle" x="162.4" y="-106.45" font-family="Arial" font-size="9.00">start_match</text>
</g>
<!-- OFF&#45;&gt;RESTING -->
<g id="edge3" class="edge">
<title>OFF&#45;&gt;RESTING</title>
<path fill="none" stroke="blue" d="M106.07,-120C133.62,-120 176.85,-120 207.85,-120"/>
<polygon fill="blue" stroke="blue" points="207.56,-123.5 217.56,-120 207.56,-116.5 207.56,-123.5"/>
<text xml:space="preserve" text-anchor="middle" x="162.4" y="-121.95" font-family="Arial" font-size="9.00">holding_preloaded</text>
</g>
<!-- PICKING_UP_BATTERY -->
<g id="node4" class="node">
<title>PICKING_UP_BATTERY</title>
<path fill="white" stroke="black" d="M474.65,-72C474.65,-72 403.9,-72 403.9,-72 397.9,-72 391.9,-66 391.9,-60 391.9,-60 391.9,-48 391.9,-48 391.9,-42 397.9,-36 403.9,-36 403.9,-36 474.65,-36 474.65,-36 480.65,-36 486.65,-42 486.65,-48 486.65,-48 486.65,-60 486.65,-60 486.65,-66 480.65,-72 474.65,-72"/>
<text xml:space="preserve" text-anchor="middle" x="439.28" y="-50.5" font-family="Arial" font-size="10.00">Picking up battery</text>
</g>
<!-- RESTING&#45;&gt;PICKING_UP_BATTERY -->
<g id="edge4" class="edge">
<title>RESTING&#45;&gt;PICKING_UP_BATTERY</title>
<path fill="none" stroke="blue" d="M254.75,-101.55C261.75,-86.72 273.84,-66.88 291.4,-57.5 318.19,-43.19 351.84,-41.43 380.17,-43.65"/>
<polygon fill="blue" stroke="blue" points="379.75,-47.13 390.04,-44.62 380.43,-40.16 379.75,-47.13"/>
<text xml:space="preserve" text-anchor="middle" x="332.65" y="-59.45" font-family="Arial" font-size="9.00">prepare_to_pick_up</text>
</g>
<!-- SCORING_LOW -->
<g id="node5" class="node">
<title>SCORING_LOW</title>
<path fill="white" stroke="black" d="M460.78,-173C460.78,-173 417.78,-173 417.78,-173 411.78,-173 405.78,-167 405.78,-161 405.78,-161 405.78,-149 405.78,-149 405.78,-143 411.78,-137 417.78,-137 417.78,-137 460.78,-137 460.78,-137 466.78,-137 472.78,-143 472.78,-149 472.78,-149 472.78,-161 472.78,-161 472.78,-167 466.78,-173 460.78,-173"/>
<text xml:space="preserve" text-anchor="middle" x="439.28" y="-151.5" font-family="Arial" font-size="10.00">Scoring low</text>
</g>
<!-- RESTING&#45;&gt;SCORING_LOW -->
<g id="edge5" class="edge">
<title>RESTING&#45;&gt;SCORING_LOW</title>
<path fill="none" stroke="blue" d="M273.83,-121.16C299.61,-122.68 339.8,-126.08 373.9,-133.5 380.78,-135 387.95,-136.96 394.9,-139.1"/>
<polygon fill="blue" stroke="blue" points="393.55,-142.34 404.14,-142.09 395.7,-135.68 393.55,-142.34"/>
<text xml:space="preserve" text-anchor="middle" x="332.65" y="-135.45" font-family="Arial" font-size="9.00">raise_to_score_low</text>
</g>
<!-- SCORING_HIGH -->
<g id="node6" class="node">
<title>SCORING_HIGH</title>
<path fill="white" stroke="black" d="M663.15,-178C663.15,-178 617.15,-178 617.15,-178 611.15,-178 605.15,-172 605.15,-166 605.15,-166 605.15,-154 605.15,-154 605.15,-148 611.15,-142 617.15,-142 617.15,-142 663.15,-142 663.15,-142 669.15,-142 675.15,-148 675.15,-154 675.15,-154 675.15,-166 675.15,-166 675.15,-172 669.15,-178 663.15,-178"/>
<text xml:space="preserve" text-anchor="middle" x="640.15" y="-156.5" font-family="Arial" font-size="10.00">Scoring high</text>
</g>
<!-- RESTING&#45;&gt;SCORING_HIGH -->
<g id="edge6" class="edge">
<title>RESTING&#45;&gt;SCORING_HIGH</title>
<path fill="none" stroke="blue" d="M273.45,-118.64C279.35,-118.38 285.59,-118.15 291.4,-118 423.1,-114.68 461.32,-98.97 587.15,-138 589.51,-138.73 591.91,-139.53 594.31,-140.38"/>
<polygon fill="blue" stroke="blue" points="592.82,-143.56 603.41,-143.81 595.29,-137.01 592.82,-143.56"/>
<text xml:space="preserve" text-anchor="middle" x="439.28" y="-116.68" font-family="Arial" font-size="9.00">raise_to_score_high</text>
</g>
<!-- PICKING_UP_BATTERY&#45;&gt;RESTING -->
<g id="edge7" class="edge">
<title>PICKING_UP_BATTERY&#45;&gt;RESTING</title>
<path fill="none" stroke="blue" d="M391.47,-64.65C355.6,-73.11 309.31,-84.77 291.4,-92.5 288.79,-93.62 286.16,-94.89 283.55,-96.24"/>
<polygon fill="blue" stroke="blue" points="282.01,-93.09 275.01,-101.04 285.44,-99.2 282.01,-93.09"/>
<text xml:space="preserve" text-anchor="middle" x="332.65" y="-94.45" font-family="Arial" font-size="9.00">holding_battery</text>
</g>
<!-- SCORING_LOW&#45;&gt;RESTING -->
<g id="edge9" class="edge">
<title>SCORING_LOW&#45;&gt;RESTING</title>
<path fill="none" stroke="blue" d="M405.48,-156.45C375.24,-156.89 329.41,-155.22 291.4,-144 288.96,-143.28 286.5,-142.41 284.06,-141.44"/>
<polygon fill="blue" stroke="blue" points="285.53,-138.26 274.98,-137.26 282.6,-144.62 285.53,-138.26"/>
<text xml:space="preserve" text-anchor="middle" x="332.65" y="-157.83" font-family="Arial" font-size="9.00">stop_scoring_low</text>
</g>
<!-- SCORING_LOW&#45;&gt;SCORING_HIGH -->
<g id="edge8" class="edge">
<title>SCORING_LOW&#45;&gt;SCORING_HIGH</title>
<path fill="none" stroke="blue" d="M473.09,-148.62C502.96,-143.77 548.19,-138.82 587.15,-144.5 589.32,-144.82 591.52,-145.2 593.73,-145.64"/>
<polygon fill="blue" stroke="blue" points="592.77,-149.01 603.31,-147.89 594.37,-142.2 592.77,-149.01"/>
<text xml:space="preserve" text-anchor="middle" x="545.9" y="-146.45" font-family="Arial" font-size="9.00">raise_a_little</text>
</g>
<!-- SCORING_HIGH&#45;&gt;RESTING -->
<g id="edge11" class="edge">
<title>SCORING_HIGH&#45;&gt;RESTING</title>
<path fill="none" stroke="blue" d="M604.83,-171.45C539.46,-191.1 394.45,-224.17 291.4,-170 281.33,-164.71 272.5,-156.09 265.44,-147.5"/>
<polygon fill="blue" stroke="blue" points="268.25,-145.4 259.42,-139.54 262.66,-149.62 268.25,-145.4"/>
<text xml:space="preserve" text-anchor="middle" x="439.28" y="-201.52" font-family="Arial" font-size="9.00">stop_scoring_high</text>
</g>
<!-- SCORING_HIGH&#45;&gt;SCORING_LOW -->
<g id="edge10" class="edge">
<title>SCORING_HIGH&#45;&gt;SCORING_LOW</title>
<path fill="none" stroke="blue" d="M604.93,-159.14C571.58,-158.3 520.73,-157.02 484.37,-156.11"/>
<polygon fill="blue" stroke="blue" points="484.71,-152.62 474.63,-155.86 484.54,-159.61 484.71,-152.62"/>
<text xml:space="preserve" text-anchor="middle" x="545.9" y="-160.61" font-family="Arial" font-size="9.00">lower_to_score_low</text>
</g>
</g>
</svg>
